<?xml version="1.0" encoding="utf-8"?>
<!-- Generator: Adobe Illustrator 22.1.0, SVG Export Plug-In . SVG Version: 6.00 Build 0)  -->
<svg version="1.1" id="design" xmlns="http://www.w3.org/2000/svg" xmlns:xlink="http://www.w3.org/1999/xlink" x="0px" y="0px"
	 viewBox="0 0 39 44" style="enable-background:new 0 0 39 44;" xml:space="preserve">
<style type="text/css">
	.st0{clip-path:url(#SVGID_2_);}
	.st1{fill:#FFFFFF;}
	.st2{display:none;}
	.st3{display:inline;fill:#475160;}
	.st4{display:inline;fill:none;}
</style>
<g>
	<defs>
		<path id="SVGID_1_" d="M22,17.5l-7.3,4.2c-0.1,0-0.1,0.1-0.1,0.1c-0.1,0.2,0,0.4,0.1,0.5l7.3,4.2c0.1,0,0.1,0,0.2,0
			c0.2,0,0.4-0.2,0.4-0.4v-8.5c0-0.2-0.2-0.4-0.4-0.4C22.1,17.5,22,17.5,22,17.5z M38.6,11.2c-0.2-0.4-0.6-0.8-1-1h0l-0.1-0.1
			c-0.8-0.4-1.7-0.4-2.5,0l-8.6,5l0,0c-0.1,0.1-0.2,0.2-0.2,0.4v25.1c0,0.2,0.2,0.4,0.4,0.4c0.1,0,0.1,0,0.2-0.1l11-6.4
			c0.4-0.2,0.7-0.6,0.9-0.9c0.2-0.4,0.4-0.9,0.4-1.4V12.6C39,12.1,38.9,11.6,38.6,11.2z M1.8,15l8.6,5l0,0c0.1,0.1,0.3,0.1,0.4,0
			L32.5,7.4c0.2-0.1,0.3-0.4,0.2-0.6c0,0,0,0,0,0c0-0.1-0.1-0.1-0.1-0.1l-11-6.4c-0.8-0.4-1.8-0.4-2.7,0.1l-17,9.8
			c-0.4,0.2-0.8,0.6-1,1c-0.3,0.4-0.4,0.9-0.4,1.4l0,0c0,0.1,0,0.1,0,0.2C0.5,13.7,1,14.5,1.8,15z M22.4,30.9L0.6,18.4
			c-0.2-0.1-0.5,0-0.6,0.2C0,18.6,0,18.7,0,18.7v12.7c0,0.4,0.2,0.9,0.4,1.3c0.2,0.4,0.6,0.8,1,1l17,9.8c0.4,0.2,0.9,0.4,1.4,0.4
			c0.5,0,1-0.1,1.4-0.4h0l0.1-0.1c0.7-0.5,1.2-1.3,1.3-2.2v-9.9C22.6,31.2,22.5,31,22.4,30.9z"/>
	</defs>
	<use xlink:href="#SVGID_1_"  style="overflow:visible;fill:#FFFFFF;"/>
	<clipPath id="SVGID_2_">
		<use xlink:href="#SVGID_1_"  style="overflow:visible;"/>
	</clipPath>
	<g class="st0">
		<rect x="0" y="0" class="st1" width="39" height="43.9"/>
	</g>
</g>
<g class="st2">
	<path class="st3" d="M-196,43.4V0.6h12.6c3.8,0,6.8,0.9,9,2.7c2.2,1.8,3.4,4.2,3.4,7.2c0,2.4-0.7,4.4-2,6.3
		c-1.3,1.8-3.2,3.1-5.5,3.8v0.1c2.9,0.3,5.2,1.4,7,3.3c1.7,1.9,2.6,4.2,2.6,7.1c0,3.7-1.3,6.7-4,8.9c-2.6,2.3-6,3.4-10.2,3.4H-196z
		 M-190.4,5.4v13.4h5c2.7,0,4.8-0.6,6.3-2c1.5-1.3,2.3-3.1,2.3-5.4c0-4-2.7-6.1-8.1-6.1H-190.4z M-190.4,23.6v14.9h6.6
		c2.9,0,5.1-0.7,6.7-2c1.6-1.3,2.4-3.2,2.4-5.6c0-4.9-3.3-7.4-10-7.4H-190.4z"/>
	<path class="st3" d="M-137.8,43.4h-22.6V0.6h5.5v38h17.1V43.4z"/>
	<path class="st3" d="M-136.2,22.5c0-6.9,1.9-12.4,5.6-16.5c3.7-4.1,8.8-6.1,15.2-6.1c6,0,10.8,2,14.4,6c3.6,4,5.4,9.2,5.4,15.6
		c0,7-1.9,12.5-5.6,16.5c-3.7,4.1-8.7,6.1-14.9,6.1c-6.1,0-11-2-14.6-6C-134.4,34.1-136.2,28.9-136.2,22.5z M-130.4,22.1
		c0,5.2,1.3,9.3,4,12.5c2.6,3.1,6.1,4.7,10.4,4.7c4.6,0,8.2-1.5,10.8-4.5c2.6-3,3.9-7.2,3.9-12.6c0-5.5-1.3-9.8-3.8-12.8
		s-6.1-4.5-10.5-4.5c-4.4,0-7.9,1.6-10.6,4.8C-129.1,12.8-130.4,16.9-130.4,22.1z"/>
	<path class="st3" d="M-58,41.7c-3.2,1.7-7.1,2.5-11.9,2.5c-6.1,0-11-1.9-14.7-5.9c-3.7-3.9-5.5-9.1-5.5-15.5
		c0-6.9,2.1-12.4,6.2-16.7c4.1-4.2,9.4-6.3,15.7-6.3c4.1,0,7.5,0.6,10.2,1.7v5.8c-3.1-1.7-6.4-2.5-10.1-2.5c-4.8,0-8.7,1.6-11.7,4.8
		c-3,3.2-4.5,7.5-4.5,12.9c0,5.1,1.4,9.2,4.2,12.2c2.8,3,6.5,4.5,11,4.5c4.2,0,7.9-1,11.1-2.9V41.7z"/>
	<path class="st3" d="M-18.9,43.4h-7.6L-42.6,24c-0.6-0.7-0.9-1.2-1.1-1.6h-0.1v21.1h-5.5V0.6h5.5v20.2h0.1c0.3-0.5,0.7-1,1.1-1.6
		L-27,0.6h6.8l-18,20.6L-18.9,43.4z"/>
	<path class="st3" d="M13.2,41.7c-3.2,1.7-7.1,2.5-11.9,2.5c-6.1,0-11-1.9-14.7-5.9c-3.7-3.9-5.5-9.1-5.5-15.5
		c0-6.9,2.1-12.4,6.2-16.7C-8.5,2-3.3-0.1,3.1-0.1c4.1,0,7.5,0.6,10.2,1.7v5.8C10.2,5.7,6.8,4.8,3.1,4.8c-4.8,0-8.7,1.6-11.7,4.8
		c-3,3.2-4.5,7.5-4.5,12.9c0,5.1,1.4,9.2,4.2,12.2c2.8,3,6.5,4.5,11,4.5c4.2,0,7.9-1,11.1-2.9V41.7z"/>
	<path class="st3" d="M54.5,43.4H49V24.1H27.3v19.3h-5.5V0.6h5.5v18.6H49V0.6h5.5V43.4z"/>
	<path class="st3" d="M99.3,43.4h-6.1l-4.4-11.7H70.9l-4.1,11.7h-6.1L77,0.6H83L99.3,43.4z M87.1,26.9L80.6,9
		c-0.2-0.6-0.4-1.6-0.7-3h-0.1c-0.2,1.3-0.4,2.3-0.7,3l-6.4,17.8H87.1z"/>
	<path class="st3" d="M111,0.6v42.8h-5.5V0.6H111z"/>
	<path class="st3" d="M157.1,43.4h-6.6L129,10.1c-0.6-0.9-1.1-1.9-1.5-2.8h-0.2c0.1,1,0.2,3,0.2,6v30.1h-5.5V0.6h6.9l21,32.8
		c1,1.5,1.6,2.5,1.8,3h0.1c-0.2-1.2-0.3-3.3-0.3-6.3V0.6h5.5V43.4z"/>
</g>
<g class="st2">
	<path class="st3" d="M202.8,1.3h2.9V41h20.9v2.4h-23.8V1.3z"/>
	<path class="st3" d="M250.8,44.1c-5.8,0-10.8-2-14.8-6.1c-3.9-3.9-5.8-8.9-5.8-15.1c0-6.5,2-11.8,6.1-16.1
		c4.1-4.2,9.1-6.3,15.1-6.3c6.2,0,11.2,2,15.1,6.1c3.9,4.1,5.8,9.1,5.8,15.1c0,3.6-0.6,6.8-1.7,9.7c-1.1,2.6-2.8,4.9-4.9,7.1
		c-3.9,3.7-8.8,5.6-14.6,5.6H250.8z M264.1,36.1c3.2-3.6,4.9-8.3,4.9-14.1c0-4.9-1.5-9.2-4.4-12.9C263,7.3,261.1,5.9,259,5
		c-2.4-1.1-5-1.7-7.8-1.7c-5.7,0-10.2,1.9-13.6,5.8c-2.9,3.6-4.4,8.2-4.4,13.9c0,5,1.5,9.4,4.6,13.1c3.4,3.7,7.8,5.6,13.1,5.6
		C256.5,41.7,260.9,39.8,264.1,36.1z"/>
	<path class="st3" d="M289,4h-15.6V1.3h34.3V4h-15.6v39.4H289V4z"/>
	<path class="st3" d="M324.5,4h-15.6V1.3h34.3V4h-15.6v39.4h-3.2V4z"/>
	<path class="st3" d="M365.1,44.1c-5.8,0-10.8-2-14.8-6.1c-3.9-3.9-5.8-8.9-5.8-15.1c0-6.5,2-11.8,6.1-16.1
		c4.1-4.2,9.1-6.3,15.1-6.3c6.2,0,11.2,2,15.1,6.1c3.9,4.1,5.8,9.1,5.8,15.1c0,3.6-0.6,6.8-1.7,9.7c-1.1,2.6-2.8,4.9-4.9,7.1
		c-3.9,3.7-8.8,5.6-14.6,5.6H365.1z M378.5,36.1c3.2-3.6,4.9-8.3,4.9-14.1c0-4.9-1.5-9.2-4.4-12.9c-1.6-1.8-3.5-3.2-5.6-4.1
		c-2.4-1.1-5-1.7-7.8-1.7c-5.7,0-10.2,1.9-13.6,5.8c-2.9,3.6-4.4,8.2-4.4,13.9c0,5,1.5,9.4,4.6,13.1c3.4,3.7,7.8,5.6,13.1,5.6
		C370.8,41.7,375.2,39.8,378.5,36.1z"/>
</g>
<g class="st2">
	<path class="st4" d="M-249.5-25.8h-10.1l-5.9,33.3h4.3l2.5-14h3.1c1.3,0,2.3,0.3,3.1,1c0.8,0.7,1.6,1.9,2.4,3.8l3.9,9.2h5.1
		l-4.5-10c-0.8-1.7-1.4-3-1.9-3.7c-0.5-0.7-1.2-1.3-2.1-1.7l0-0.1c5.2-1.4,8.2-4.4,9-9c0.5-2.8,0-5-1.6-6.6
		C-243.9-25.1-246.3-25.8-249.5-25.8z M-245.3-16.6c-0.3,1.9-1.2,3.4-2.6,4.5c-1.4,1.1-3.1,1.7-5.1,1.7h-5.1l2.1-11.8h5.1
		c2.1,0,3.7,0.5,4.6,1.5C-245.3-19.7-245-18.3-245.3-16.6z M-214.4-22l-16.5-3.8l-5.9,33.3h17.9l0.7-3.8h-13.6l2-11.2h11.9l0.7-3.8
		h-11.9l1.9-10.7H-214.4z M158.4-22l0.7-3.8h-17.1L136,7.4h17.9l0.7-3.8H141l2-11.2h11.9l0.7-3.8h-11.9l1.9-10.7H158.4z"/>
</g>
</svg>
