<?xml version="1.0" encoding="utf-8"?>
<!-- Generator: Adobe Illustrator 22.1.0, SVG Export Plug-In . SVG Version: 6.00 Build 0)  -->
<svg version="1.1" id="图层_1" xmlns="http://www.w3.org/2000/svg" xmlns:xlink="http://www.w3.org/1999/xlink" x="0px" y="0px"
	 viewBox="0 0 750 912.4" style="enable-background:new 0 0 750 912.4;" xml:space="preserve">
<style type="text/css">
	.st0{opacity:0.8;fill:#101229;enable-background:new    ;}
	.st1{opacity:0.8;fill:none;stroke:#F9B72B;stroke-width:2;enable-background:new    ;}
	.st2{fill:#F9B72B;}
	.st3{fill:none;stroke:#F9B72B;}
	.st4{opacity:0.8;fill:none;stroke:#F9B72B;stroke-width:2;stroke-miterlimit:10;enable-background:new    ;}
</style>
<polyline class="st0" points="369.2,61.7 29.8,61.7 29.8,912 720.6,912 720.6,61.7 598.1,61.7 564.6,95.1 531.2,61.7 381,61.7 "/>
<path id="矩形_17_拷贝_2" class="st1" d="M564.8,68.7l-26-26l26-26l26,26L564.8,68.7z"/>
<path id="矩形_17_拷贝_3" class="st1" d="M564.8,52.7l-10-10l10-10l10,10L564.8,52.7z"/>
<rect id="矩形_19_拷贝" x="118.8" y="41.7" class="st2" width="404" height="2"/>
<path id="矩形_20" class="st3" d="M449.5,42.7l4.2-4.2l4.2,4.2l-4.2,4.2L449.5,42.7z"/>
<path id="矩形_20_拷贝" class="st3" d="M429.5,42.7l4.2-4.2l4.2,4.2l-4.2,4.2L429.5,42.7z"/>
<path id="矩形_20_拷贝_2" class="st3" d="M424.7,42.7l9-9l9,9l-9,9L424.7,42.7z"/>
<rect id="矩形_19" x="606.6" y="41.7" class="st2" width="114" height="2"/>
<rect id="矩形_19_拷贝-2" x="432.8" y="41.7" class="st2" width="89.9" height="2"/>
<path class="st3" d="M381,61.7"/>
<path class="st3" d="M369.5,61.7"/>
<polyline class="st3" points="381.3,61.7 388.8,61.7 375.3,73.7 361.8,61.7 369.5,61.7 "/>
<polyline class="st3" points="381.3,61.7 375.3,67.1 369.2,61.7 "/>
<polygon class="st2" points="750,48.7 747.8,51 739.4,42.7 747.8,34.4 750,36.6 750,35.2 747.8,33 738,42.7 747.8,52.4 750,50.2 "/>
<polygon class="st2" points="750,44 747.8,46.2 744.2,42.7 747.8,39.2 750,41.4 750,40 747.8,37.7 742.8,42.7 747.8,47.6 750,45.4 
	"/>
<g>
	<polygon class="st2" points="530.7,61.2 381,61.2 381,62.2 531.7,62.2 	"/>
	<path class="st2" d="M720.6,69.2c-0.3,0-0.7,0-1-0.1c-3.5-0.5-5.9-3.8-5.4-7.4l0.1-0.6H598.6l-1,1h115.6c-0.1,1.8,0.4,3.5,1.4,5
		c1.2,1.6,2.9,2.7,4.9,3c0.2,0,0.5,0.1,0.7,0.1v842H30.3v-842c1.8-0.1,3.5-0.9,4.8-2.1c1.4-1.4,2.2-3.3,2.2-5.3c0-0.2,0-0.4,0-0.6
		h332.3v-1H36.1l0.1,0.6c0.1,0.3,0.1,0.7,0.1,1c0,1.7-0.7,3.3-1.9,4.5s-2.8,1.9-4.6,1.9l-0.5,0v844h691.9v-844L720.6,69.2z"/>
</g>
<path id="矩形_17_拷贝" class="st4" d="M564.6,85.1l-42.4-42.4l42.4-42.4L607,42.7L564.6,85.1z"/>
</svg>
