<?xml version="1.0" encoding="utf-8"?>
<!-- Generator: Adobe Illustrator 22.1.0, SVG Export Plug-In . SVG Version: 6.00 Build 0)  -->
<svg version="1.1" id="组_12" xmlns="http://www.w3.org/2000/svg" xmlns:xlink="http://www.w3.org/1999/xlink" x="0px" y="0px"
	 viewBox="0 0 603 96.4" style="enable-background:new 0 0 603 96.4;" xml:space="preserve">
<style type="text/css">
	.st0{opacity:0.8;fill:none;stroke:#F9B72B;stroke-width:2;enable-background:new    ;}
	.st1{fill:#F9B72B;}
	.st2{fill:none;stroke:#F9B72B;}
</style>
<path id="矩形_17_拷贝" class="st0" d="M446.5,85.9l-42.4-42.4L446.5,1l42.4,42.4L446.5,85.9z"/>
<path id="矩形_17_拷贝_2" class="st0" d="M446.5,69.4l-26-26l26-26l26,26L446.5,69.4z"/>
<path id="矩形_17_拷贝_3" class="st0" d="M446.5,53.4l-10-10l10-10l10,10L446.5,53.4z"/>
<rect id="矩形_19" x="488.5" y="42.4" class="st1" width="114" height="2"/>
<rect id="矩形_19_拷贝" x="0.5" y="42.4" class="st1" width="404" height="2"/>
<path id="矩形_20" class="st2" d="M331.3,43.4l4.2-4.2l4.2,4.2l-4.2,4.2L331.3,43.4z"/>
<path id="矩形_20_拷贝" class="st2" d="M311.3,43.4l4.2-4.2l4.2,4.2l-4.2,4.2L311.3,43.4z"/>
<path id="矩形_20_拷贝_2" class="st2" d="M306.5,43.4l9-9l9,9l-9,9L306.5,43.4z"/>
</svg>
