<?xml version="1.0" encoding="utf-8"?>
<!-- Generator: Adobe Illustrator 22.1.0, SVG Export Plug-In . SVG Version: 6.00 Build 0)  -->
<svg version="1.1" id="组_13" xmlns="http://www.w3.org/2000/svg" xmlns:xlink="http://www.w3.org/1999/xlink" x="0px" y="0px"
	 viewBox="0 0 1920 662.9" style="enable-background:new 0 0 1920 662.9;" xml:space="preserve">
<style type="text/css">
	.st0{opacity:0.8;fill:#101229;enable-background:new    ;}
	.st1{opacity:0.8;fill:none;stroke:#F9B72B;stroke-width:2;enable-background:new    ;}
	.st2{fill:#F9B72B;}
	.st3{fill:none;stroke:#F9B72B;}
</style>
<polygon class="st0" points="1497.4,62.4 1464,95.9 1430.6,62.4 300,62.4 300,662.4 1620,662.4 1620,62.4 "/>
<path id="矩形_17_拷贝" class="st1" d="M1464,85.9l-42.4-42.4L1464,1l42.4,42.4L1464,85.9z"/>
<path id="矩形_17_拷贝_2" class="st1" d="M1464,69.4l-26-26l26-26l26,26L1464,69.4z"/>
<path id="矩形_17_拷贝_3" class="st1" d="M1464,53.4l-10-10l10-10l10,10L1464,53.4z"/>
<rect id="矩形_19" x="1506" y="42.4" class="st2" width="114" height="2"/>
<rect id="矩形_19_拷贝" x="1018" y="42.4" class="st2" width="404" height="2"/>
<path id="矩形_20" class="st3" d="M1348.8,43.4l4.2-4.2l4.2,4.2l-4.2,4.2L1348.8,43.4z"/>
<path id="矩形_20_拷贝" class="st3" d="M1328.8,43.4l4.2-4.2l4.2,4.2l-4.2,4.2L1328.8,43.4z"/>
<path id="矩形_20_拷贝_2" class="st3" d="M1324,43.4l9-9l9,9l-9,9L1324,43.4z"/>
<polyline class="st3" points="966.5,62.4 974,62.4 960.5,74.4 947,62.4 954.7,62.4 "/>
<g>
	<polygon class="st2" points="960.6,68.7 954,62.7 954.7,61.9 960.6,67.3 966.5,61.9 967.2,62.7 	"/>
</g>
<g>
	<path class="st2" d="M1620,69.9c-3.6,0-6.5-2.9-6.5-6.5c0-0.3,0-0.6,0.1-0.9l0.1-0.6h-115.8l-1,1h115.6c0,0.2,0,0.3,0,0.5
		c0,4,3.1,7.2,7,7.5v591h-1319v-591c3.9-0.2,7-3.4,7-7.4c0-0.2,0-0.4,0-0.6h646.4v-1H306.3l0.1,0.6c0.1,0.3,0.1,0.7,0.1,1
		c0,1.7-0.7,3.3-1.9,4.5c-1.2,1.2-2.9,1.9-4.6,1.9l-0.5,0v593h1321v-593H1620z"/>
	<polygon class="st2" points="1430.1,61.9 967.1,61.9 967.1,62.9 1431.1,62.9 	"/>
</g>
</svg>
