<?xml version="1.0" encoding="utf-8"?>
<!-- Generator: Adobe Illustrator 22.1.0, SVG Export Plug-In . SVG Version: 6.00 Build 0)  -->
<svg version="1.1" id="组_13" xmlns="http://www.w3.org/2000/svg" xmlns:xlink="http://www.w3.org/1999/xlink" x="0px" y="0px"
	 viewBox="0 0 1321 601" style="enable-background:new 0 0 1321 601;" xml:space="preserve">
<style type="text/css">
	.st0{opacity:0.8;fill:#101229;enable-background:new    ;}
	.st1{fill:none;stroke:#F9B72B;}
	.st2{fill:#F9B72B;}
</style>
<polygon class="st0" points="1197.9,0.5 1164.5,33.9 1131.1,0.5 0.5,0.5 0.5,600.5 1320.5,600.5 1320.5,0.5 "/>
<polyline class="st1" points="667,0.5 674.5,0.5 661,12.5 647.5,0.5 655.2,0.5 "/>
<g>
	<polygon class="st2" points="661.1,6.7 654.5,0.8 655.2,0 661.1,5.3 667,0 667.7,0.8 	"/>
</g>
<g>
	<path class="st2" d="M1320.5,8c-3.6,0-6.5-2.9-6.5-6.5c0-0.3,0-0.6,0.1-0.9l0.1-0.6h-115.8l-1,1H1313c0,0.2,0,0.3,0,0.5
		c0,4,3.1,7.2,7,7.5v591H1V9c3.9-0.2,7-3.4,7-7.4C8,1.4,8,1.2,8,1h646.4V0H6.8l0.1,0.6C7,0.9,7,1.3,7,1.6c0,1.7-0.7,3.3-1.9,4.5
		C3.9,7.4,2.2,8,0.5,8L0,8v593h1321V8H1320.5z"/>
	<polygon class="st2" points="1130.6,0 667.6,0 667.6,1 1131.6,1 	"/>
</g>
</svg>
