?xml version="1.0" encoding="utf-8"?>
<!-- Generator: Adobe Illustrator 22.1.0, SVG Export Plug-In . SVG Version: 6.00 Build 0)  -->
<svg version="1.1" id="组_13" xmlns="http://www.w3.org/2000/svg" xmlns:xlink="http://www.w3.org/1999/xlink" x="0px" y="0px"
	 viewBox="0 0 1321 85.9" style="enable-background:new 0 0 1321 85.9;" xml:space="preserve">
<style type="text/css">
	.st0{opacity:0.8;enable-background:new    ;}
	.st1{fill:#F9B72B;}
</style>
<g id="矩形_17_拷贝" class="st0">
	<path class="st1" d="M1164.5,87.3l-43.8-43.8l43.8-43.8l43.8,43.8L1164.5,87.3z M1123.5,43.4l41,41l41-41l-41-41L1123.5,43.4z"/>
</g>
<g id="矩形_17_拷贝_2" class="st0">
	<path class="st1" d="M1164.5,70.8l-27.4-27.4l27.4-27.4l27.4,27.4L1164.5,70.8z M1139.9,43.4l24.6,24.6l24.6-24.6l-24.6-24.6
		L1139.9,43.4z"/>
</g>
<g id="矩形_17_拷贝_3" class="st0">
	<path class="st1" d="M1164.5,54.9l-11.4-11.4l11.4-11.4l11.4,11.4L1164.5,54.9z M1155.9,43.4l8.6,8.6l8.6-8.6l-8.6-8.6L1155.9,43.4
		z"/>
</g>
<g id="矩形_19">
	<rect x="1206.5" y="42.4" class="st1" width="114" height="2"/>
</g>
<g id="矩形_19_拷贝">
	<rect x="718.5" y="42.4" class="st1" width="404" height="2"/>
</g>
<g id="矩形_20">
	<path class="st1" d="M1053.5,48.4l-4.9-5l4.9-5l4.9,5L1053.5,48.4z M1050,43.4l3.5,3.5l3.5-3.5l-3.5-3.5L1050,43.4z"/>
</g>
<g id="矩形_20_拷贝">
	<path class="st1" d="M1033.5,48.4l-4.9-5l4.9-5l4.9,5L1033.5,48.4z M1030,43.4l3.5,3.5l3.5-3.5l-3.5-3.5L1030,43.4z"/>
</g>
<g id="矩形_20_拷贝_2">
	<path class="st1" d="M1033.5,53.2l-9.7-9.7l9.7-9.7l9.7,9.7L1033.5,53.2z M1025.2,43.4l8.3,8.3l8.3-8.3l-8.3-8.3L1025.2,43.4z"/>
</g>
</svg>
