<?xml version="1.0" encoding="utf-8"?>
<!-- Generator: Adobe Illustrator 22.1.0, SVG Export Plug-In . SVG Version: 6.00 Build 0)  -->
<svg version="1.1" id="组_13" xmlns="http://www.w3.org/2000/svg" xmlns:xlink="http://www.w3.org/1999/xlink" x="0px" y="0px"
	 viewBox="0 0 1321 662.9" style="enable-background:new 0 0 1321 662.9;" xml:space="preserve">
<style type="text/css">
	.st0{opacity:0.8;fill:#101229;enable-background:new    ;}
	.st1{opacity:0.8;fill:none;stroke:#F9B72B;stroke-width:2;enable-background:new    ;}
	.st2{fill:#F9B72B;}
	.st3{fill:none;stroke:#F9B72B;}
</style>
<polygon class="st0" points="1197.9,62.4 1164.5,95.9 1131.1,62.4 0.5,62.4 0.5,662.4 1320.5,662.4 1320.5,62.4 "/>
<path id="矩形_17_拷贝" class="st1" d="M1164.5,85.9l-42.4-42.4L1164.5,1l42.4,42.4L1164.5,85.9z"/>
<path id="矩形_17_拷贝_2" class="st1" d="M1164.5,69.4l-26-26l26-26l26,26L1164.5,69.4z"/>
<path id="矩形_17_拷贝_3" class="st1" d="M1164.5,53.4l-10-10l10-10l10,10L1164.5,53.4z"/>
<rect id="矩形_19" x="1206.5" y="42.4" class="st2" width="114" height="2"/>
<rect id="矩形_19_拷贝" x="718.5" y="42.4" class="st2" width="404" height="2"/>
<path id="矩形_20" class="st3" d="M1049.3,43.4l4.2-4.2l4.2,4.2l-4.2,4.2L1049.3,43.4z"/>
<path id="矩形_20_拷贝" class="st3" d="M1029.3,43.4l4.2-4.2l4.2,4.2l-4.2,4.2L1029.3,43.4z"/>
<path id="矩形_20_拷贝_2" class="st3" d="M1024.5,43.4l9-9l9,9l-9,9L1024.5,43.4z"/>
<polyline class="st3" points="667,62.4 674.5,62.4 661,74.4 647.5,62.4 655.2,62.4 "/>
<g>
	<polygon class="st2" points="661.1,68.7 654.5,62.7 655.2,61.9 661.1,67.3 667,61.9 667.7,62.7 	"/>
</g>
<g>
	<path class="st2" d="M1320.5,69.9c-3.6,0-6.5-2.9-6.5-6.5c0-0.3,0-0.6,0.1-0.9l0.1-0.6h-115.8l-1,1H1313c0,0.2,0,0.3,0,0.5
		c0,4,3.1,7.2,7,7.5v591H1v-591c3.9-0.2,7-3.4,7-7.4c0-0.2,0-0.4,0-0.6h646.4v-1H6.8l0.1,0.6C7,62.9,7,63.2,7,63.5
		c0,1.7-0.7,3.3-1.9,4.5c-1.2,1.2-2.9,1.9-4.6,1.9l-0.5,0v593h1321v-593H1320.5z"/>
	<polygon class="st2" points="1130.6,61.9 667.6,61.9 667.6,62.9 1131.6,62.9 	"/>
</g>
</svg>
